<svg xmlns="http://www.w3.org/2000/svg" width="1180" height="560" viewBox="0 0 1180 560">
  <defs>
    <marker id="arrow" markerWidth="10" markerHeight="10" refX="9" refY="3" orient="auto">
      <path d="M0,0 L0,6 L9,3 z" fill="#475569"/>
    </marker>
    <style>
      .box { fill:#f8fafc; stroke:#334155; stroke-width:2; rx:12; }
      .db { fill:#ecfeff; stroke:#0e7490; stroke-width:2; rx:12; }
      .text { font:600 17px system-ui,sans-serif; fill:#0f172a; text-anchor:middle; }
      .small { font:13px system-ui,sans-serif; fill:#334155; text-anchor:middle; }
      .line { stroke:#475569; stroke-width:2; fill:none; marker-end:url(#arrow); }
      .title { font:700 24px system-ui,sans-serif; fill:#0f172a; text-anchor:middle; }
    </style>
  </defs>
  <rect width="1180" height="560" fill="white"/>
  <text x="590" y="38" class="title">Live Scoreboard Module</text>

  <rect x="60" y="120" width="180" height="75" class="box"/>
  <text x="150" y="152" class="text">Browser</text>
  <text x="150" y="176" class="small">action, snapshot, SSE</text>

  <rect x="300" y="90" width="190" height="75" class="box"/>
  <text x="395" y="122" class="text">Auth Middleware</text>
  <text x="395" y="146" class="small">JWT + scope check</text>

  <rect x="570" y="90" width="220" height="75" class="box"/>
  <text x="680" y="122" class="text">Action Endpoint</text>
  <text x="680" y="146" class="small">validates completion</text>

  <rect x="300" y="270" width="220" height="75" class="box"/>
  <text x="410" y="302" class="text">Leaderboard API</text>
  <text x="410" y="326" class="small">returns cached top 10</text>

  <rect x="890" y="90" width="220" height="75" class="box"/>
  <text x="1000" y="122" class="text">Scoreboard Module</text>
  <text x="1000" y="146" class="small">score policy + replay check</text>

  <rect x="890" y="230" width="220" height="95" class="db"/>
  <text x="1000" y="268" class="text">PostgreSQL</text>
  <text x="1000" y="292" class="small">scores + score_events</text>
  <text x="1000" y="312" class="small">source of truth</text>

  <rect x="620" y="270" width="220" height="75" class="db"/>
  <text x="730" y="302" class="text">Redis Cache</text>
  <text x="730" y="326" class="small">leaderboard:top10</text>

  <rect x="890" y="400" width="220" height="75" class="box"/>
  <text x="1000" y="432" class="text">SSE Stream</text>
  <text x="1000" y="456" class="small">broadcasts top 10</text>

  <path d="M240 145 L300 125" class="line"/>
  <path d="M490 125 L570 125" class="line"/>
  <path d="M790 125 L890 125" class="line"/>
  <path d="M1000 165 L1000 230" class="line"/>
  <path d="M955 165 C900 220,850 270,840 295" class="line"/>
  <path d="M520 305 L620 305" class="line"/>
  <path d="M620 325 C560 375,440 385,240 175" class="line"/>
  <path d="M1000 325 L1000 400" class="line"/>
  <path d="M890 435 C650 455,310 330,180 195" class="line"/>
</svg>
