<svg xmlns="http://www.w3.org/2000/svg" width="1320" height="780" viewBox="0 0 1320 780">
  <defs>
    <marker id="arrow" markerWidth="10" markerHeight="10" refX="9" refY="3" orient="auto">
      <path d="M0,0 L0,6 L9,3 z" fill="#475569"/>
    </marker>
    <style>
      .actor { fill:#f8fafc; stroke:#334155; stroke-width:2; rx:10; }
      .name { font:600 15px system-ui,sans-serif; fill:#0f172a; text-anchor:middle; }
      .label { font:14px system-ui,sans-serif; fill:#334155; text-anchor:middle; }
      .life { stroke:#94a3b8; stroke-width:1.5; stroke-dasharray:7 7; }
      .call { stroke:#475569; stroke-width:2; marker-end:url(#arrow); }
      .return { stroke:#0f766e; stroke-width:2; stroke-dasharray:6 4; marker-end:url(#arrow); }
      .title { font:700 24px system-ui,sans-serif; fill:#0f172a; text-anchor:middle; }
    </style>
  </defs>
  <rect width="1320" height="780" fill="white"/>
  <text x="660" y="35" class="title">Score Update Flow</text>

  <rect x="35" y="70" width="140" height="50" class="actor"/><text x="105" y="101" class="name">Browser</text>
  <rect x="225" y="70" width="160" height="50" class="actor"/><text x="305" y="101" class="name">Auth Middleware</text>
  <rect x="440" y="70" width="160" height="50" class="actor"/><text x="520" y="101" class="name">Action Endpoint</text>
  <rect x="665" y="70" width="190" height="50" class="actor"/><text x="760" y="101" class="name">Scoreboard Module</text>
  <rect x="930" y="70" width="140" height="50" class="actor"/><text x="1000" y="101" class="name">PostgreSQL</text>
  <rect x="1115" y="70" width="120" height="50" class="actor"/><text x="1175" y="101" class="name">Redis</text>
  <rect x="1260" y="70" width="50" height="50" class="actor"/><text x="1285" y="101" class="name">SSE</text>

  <line x1="105" y1="120" x2="105" y2="730" class="life"/>
  <line x1="305" y1="120" x2="305" y2="730" class="life"/>
  <line x1="520" y1="120" x2="520" y2="730" class="life"/>
  <line x1="760" y1="120" x2="760" y2="730" class="life"/>
  <line x1="1000" y1="120" x2="1000" y2="730" class="life"/>
  <line x1="1175" y1="120" x2="1175" y2="730" class="life"/>
  <line x1="1285" y1="120" x2="1285" y2="730" class="life"/>

  <line x1="105" y1="165" x2="305" y2="165" class="call"/>
  <text x="205" y="155" class="label">request with JWT</text>

  <line x1="305" y1="225" x2="520" y2="225" class="call"/>
  <text x="413" y="215" class="label">verified userId + scopes</text>

  <line x1="520" y1="285" x2="760" y2="285" class="call"/>
  <text x="640" y="275" class="label">validated actionInstanceId</text>

  <line x1="760" y1="345" x2="1000" y2="345" class="call"/>
  <text x="880" y="335" class="label">begin transaction</text>

  <line x1="760" y1="405" x2="1000" y2="405" class="call"/>
  <text x="880" y="395" class="label">insert unique score event</text>

  <line x1="760" y1="465" x2="1000" y2="465" class="call"/>
  <text x="880" y="455" class="label">upsert score total + commit</text>

  <line x1="760" y1="525" x2="1000" y2="525" class="call"/>
  <text x="880" y="515" class="label">query latest top 10</text>

  <line x1="760" y1="585" x2="1175" y2="585" class="call"/>
  <text x="968" y="575" class="label">refresh leaderboard:top10</text>

  <line x1="760" y1="645" x2="520" y2="645" class="return"/>
  <text x="640" y="635" class="label">new score</text>

  <line x1="520" y1="685" x2="105" y2="685" class="return"/>
  <text x="313" y="675" class="label">success</text>

  <line x1="760" y1="725" x2="1285" y2="725" class="return"/>
  <text x="1023" y="715" class="label">leaderboard.updated from cache snapshot</text>
</svg>
